<svg width="32" height="32" viewBox="0 0 32 32" fill="none" xmlns="http://www.w3.org/2000/svg">
<path d="M6.66683 1.33301H2.66683C2.31321 1.33301 1.97407 1.47348 1.72402 1.72353C1.47397 1.97358 1.3335 2.31272 1.3335 2.66634V29.333C1.3335 29.6866 1.47397 30.0258 1.72402 30.2758C1.97407 30.5259 2.31321 30.6663 2.66683 30.6663H6.66683V1.33301Z" fill="#FFC1C1"/>
<path d="M9.3335 30.6663H22.6668V1.33301H9.3335V30.6663ZM16.0002 25.333C15.6465 25.333 15.3074 25.1925 15.0574 24.9425C14.8073 24.6924 14.6668 24.3533 14.6668 23.9997C14.6668 23.6461 14.8073 23.3069 15.0574 23.0569C15.3074 22.8068 15.6465 22.6663 16.0002 22.6663C16.3538 22.6663 16.6929 22.8068 16.943 23.0569C17.193 23.3069 17.3335 23.6461 17.3335 23.9997C17.3335 24.3533 17.193 24.6924 16.943 24.9425C16.6929 25.1925 16.3538 25.333 16.0002 25.333ZM16.0002 6.66634C16.3538 6.66634 16.6929 6.80682 16.943 7.05686C17.193 7.30691 17.3335 7.64605 17.3335 7.99967C17.3335 8.3533 17.193 8.69244 16.943 8.94248C16.6929 9.19253 16.3538 9.33301 16.0002 9.33301C15.6465 9.33301 15.3074 9.19253 15.0574 8.94248C14.8073 8.69244 14.6668 8.3533 14.6668 7.99967C14.6668 7.64605 14.8073 7.30691 15.0574 7.05686C15.3074 6.80682 15.6465 6.66634 16.0002 6.66634ZM16.0002 14.6663C16.3538 14.6663 16.6929 14.8068 16.943 15.0569C17.193 15.3069 17.3335 15.6461 17.3335 15.9997C17.3335 16.3533 17.193 16.6924 16.943 16.9425C16.6929 17.1925 16.3538 17.333 16.0002 17.333C15.6465 17.333 15.3074 17.1925 15.0574 16.9425C14.8073 16.6924 14.6668 16.3533 14.6668 15.9997C14.6668 15.6461 14.8073 15.3069 15.0574 15.0569C15.3074 14.8068 15.6465 14.6663 16.0002 14.6663Z" fill="#CB0202"/>
<path d="M29.3335 1.33301H25.3335V30.6663H29.3335C29.6871 30.6663 30.0263 30.5259 30.2763 30.2758C30.5264 30.0258 30.6668 29.6866 30.6668 29.333V2.66634C30.6668 2.31272 30.5264 1.97358 30.2763 1.72353C30.0263 1.47348 29.6871 1.33301 29.3335 1.33301Z" fill="#FD3535"/>
</svg>
