<svg width="32" height="32" viewBox="0 0 32 32" fill="none" xmlns="http://www.w3.org/2000/svg">
<path d="M30.6668 8.00016V2.66683C30.6668 2.31321 30.5264 1.97407 30.2763 1.72402C30.0263 1.47397 29.6871 1.3335 29.3335 1.3335H2.66683C2.31321 1.3335 1.97407 1.47397 1.72402 1.72402C1.47397 1.97407 1.3335 2.31321 1.3335 2.66683V8.00016H30.6668Z" fill="#FFB1B1"/>
<path d="M1.3335 10.667V29.3337C1.3335 29.6873 1.47397 30.0264 1.72402 30.2765C1.97407 30.5265 2.31321 30.667 2.66683 30.667H9.3335V10.667H1.3335Z" fill="#FFB1B1"/>
<path d="M12 30.667H29.3333C29.687 30.667 30.0261 30.5265 30.2761 30.2765C30.5262 30.0264 30.6667 29.6873 30.6667 29.3337V10.667H12V30.667Z" fill="#FD3535"/>
</svg>
